# xmcd
#
# Track frame offsets:
# 150
# 17550
# 33795
# 48177
# 61675
# 77230
# 89382
# 103500
# 117352
# 132617
# 150752
# 165552
# 180637
# 195450
# 210490
# 225907
# 239847
# 252695
# 266725
# 280387
# 291782
# 304122
# 318985
#
# Disc length: 4428 seconds
#
#
# Revision: 1
# Processed by: cddbd v1.5.2PL0 Copyright (c) Steve Scherf et al.
# Submitted via: FreeRIP 2.945 
#
DISCID=37114a17
DTITLE=Τα τραγούδια  της Ευτυχίας Παπαγιαννοπούλου - Τα τραγούδια  της Ευτυχίας Παπαγιαννοπούλου
DYEAR=1993
DGENRE=Folk
TTITLE0=Είμ' αητός χωρίς φτερά - Μπιθικώτσης Γρηγόρης
TTITLE1=Τι έχει και κλαίει το παιδί - Βίκυ  Μοσχολιού
TTITLE2=Μου σπάσανε τον μπαγλαμά - Πάνος Γαβαλάς, Ρία Κούρτη
TTITLE3=Στα βουνά δεν παν' οι πόνοι - Μανώλης Αγγελόπουλος,  Αννούλα Βασιλείου
TTITLE4=Κάποιο τρένο θα περάσει - Μαίρη Λίντα,  Μανώλης Χιώτης
TTITLE5=Λάθος τον δρόμο πήραμε - Στράτος Διονυσίου
TTITLE6=Πετραδάκι - πετραδάκι - Μιχάλης Μενιδιάτης, ’ννυ Λιαροπούλου
TTITLE7=Αφού αμαρτήσανε τα δυό σου χείλη - Γρηγόρης Μπιθικώτσης
TTITLE8=Γυάλινος κόσμος - Βασίλης Βλάσης, Απόστολος Καλδάρας
TTITLE9=Ρίξε στο γυαλί φαρμάκι -  Γιώτα Λύδια
TTITLE10=Στ' Αποστόλη το κουτούκι  - Γρηγόρης Μπιθικώτσης
TTITLE11=Τώρα που φεύγω απ' τη ζωή - Στέλιος Καζαντζίδης,  Μαρινέλλα
TTITLE12=Όνειρο απατηλό - Σταμάτης Κόκοτας
TTITLE13=Αν μας σπάσουν το μπουζούκι - Γιώργος Ζαμπέτας, Ελένη Ροδά
TTITLE14=Συρματοπλέγματα βαρειά - Γιώτα  Λύδια, Μπάμπης Μπακάλης
TTITLE15=Τι να σου κάνει μια καρδιά  - Γρηγόρης Μπιθικώτσης
TTITLE16=Πήρα απ' τη νιότη χρώματα - Βίκυ  Μοσχολιού
TTITLE17=Η διπρόσωπη - Αντώνης Ρεπάνης
TTITLE18=Απ' τα ψηλά στα χαμηλά - Στέλιος Καζαντζίδης
TTITLE19=Ένας αητός γκρεμίστηκε - Στράτος Διονυσίου
TTITLE20=Αλλοτινές μου εποχές - Στέλιος Καζαντζίδης
TTITLE21=Όπου δεις φωτιά να καίει - Μιχάλης Μενιδιάτης
TTITLE22=Θα βρω μουρμούρη μπαγλαμά - Πάνος Γαβαλάς, Ρία Κούρτη
EXTD=
EXTT0=
EXTT1=
EXTT2=
EXTT3=
EXTT4=
EXTT5=
EXTT6=
EXTT7=
EXTT8=
EXTT9=
EXTT10=
EXTT11=
EXTT12=
EXTT13=
EXTT14=
EXTT15=
EXTT16=
EXTT17=
EXTT18=
EXTT19=
EXTT20=
EXTT21=
EXTT22=
PLAYORDER=
